<svg viewBox="0 0 150 75" fill="none" xmlns="http://www.w3.org/2000/svg">
<g clip-path="url(#clip0_2201:2107)">
<path d="M150 0H0V75H150V0Z" fill="#E89663"/>
<path d="M31.625 52.465C33.025 52.465 34.32 52.6517 35.51 53.025C36.7233 53.375 37.7617 53.9233 38.625 54.67C39.4883 55.4167 40.165 56.3617 40.655 57.505C41.145 58.625 41.39 59.9667 41.39 61.53C41.39 63.0233 41.18 64.33 40.76 65.45C40.34 66.57 39.745 67.515 38.975 68.285C38.205 69.0317 37.2717 69.5917 36.175 69.965C35.1017 70.3383 33.9 70.525 32.57 70.525C31.5667 70.525 30.6333 70.3733 29.77 70.07V75.88C29.5367 75.95 29.1633 76.02 28.65 76.09C28.1367 76.1833 27.6117 76.23 27.075 76.23C26.5617 76.23 26.095 76.195 25.675 76.125C25.2783 76.055 24.94 75.915 24.66 75.705C24.38 75.495 24.17 75.2033 24.03 74.83C23.89 74.48 23.82 74.0133 23.82 73.43V56.63C23.82 56 23.9483 55.4867 24.205 55.09C24.485 54.6933 24.8583 54.3317 25.325 54.005C26.0483 53.5383 26.9467 53.165 28.02 52.885C29.0933 52.605 30.295 52.465 31.625 52.465ZM31.695 65.835C34.0983 65.835 35.3 64.4 35.3 61.53C35.3 60.0367 34.9967 58.9283 34.39 58.205C33.8067 57.4817 32.955 57.12 31.835 57.12C31.3917 57.12 30.995 57.1783 30.645 57.295C30.295 57.3883 29.9917 57.505 29.735 57.645V65.345C30.015 65.485 30.3183 65.6017 30.645 65.695C30.9717 65.7883 31.3217 65.835 31.695 65.835ZM50.2436 69.965C50.0103 70.035 49.637 70.105 49.1236 70.175C48.6336 70.245 48.1203 70.28 47.5836 70.28C47.0703 70.28 46.6036 70.245 46.1836 70.175C45.787 70.105 45.4486 69.965 45.1686 69.755C44.8886 69.545 44.667 69.265 44.5036 68.915C44.3636 68.5417 44.2936 68.0633 44.2936 67.48V56.98C44.2936 56.4433 44.387 55.9883 44.5736 55.615C44.7836 55.2183 45.0753 54.8683 45.4486 54.565C45.822 54.2617 46.277 53.9933 46.8136 53.76C47.3736 53.5033 47.9686 53.2817 48.5986 53.095C49.2286 52.9083 49.882 52.7683 50.5586 52.675C51.2353 52.5583 51.912 52.5 52.5886 52.5C53.7086 52.5 54.5953 52.7217 55.2486 53.165C55.902 53.585 56.2286 54.285 56.2286 55.265C56.2286 55.5917 56.182 55.9183 56.0886 56.245C55.9953 56.5483 55.8786 56.8283 55.7386 57.085C55.2486 57.085 54.747 57.1083 54.2336 57.155C53.7203 57.2017 53.2186 57.2717 52.7286 57.365C52.2386 57.4583 51.772 57.5633 51.3286 57.68C50.9086 57.7733 50.547 57.89 50.2436 58.03V69.965ZM67.5539 43.96C68.7672 43.96 69.6422 44.1933 70.1789 44.66C70.7389 45.1267 71.0189 45.6867 71.0189 46.34C71.0189 46.9467 70.8555 47.46 70.5289 47.88C70.2022 48.2767 69.6655 48.6733 68.9189 49.07L64.4039 51.45C63.7039 51.38 63.1089 51.1 62.6189 50.61C62.1289 50.12 61.8839 49.595 61.8839 49.035C61.8839 48.755 61.9539 48.475 62.0939 48.195C62.2339 47.915 62.4672 47.6583 62.7939 47.425L67.5539 43.96ZM75.6389 61.495C75.6389 62.9417 75.4172 64.2367 74.9739 65.38C74.5305 66.5 73.9005 67.445 73.0839 68.215C72.2905 68.985 71.3339 69.5683 70.2139 69.965C69.0939 70.3617 67.8455 70.56 66.4689 70.56C65.0922 70.56 63.8439 70.35 62.7239 69.93C61.6039 69.51 60.6355 68.915 59.8189 68.145C59.0255 67.3517 58.4072 66.395 57.9639 65.275C57.5205 64.155 57.2989 62.895 57.2989 61.495C57.2989 60.1183 57.5205 58.87 57.9639 57.75C58.4072 56.63 59.0255 55.685 59.8189 54.915C60.6355 54.1217 61.6039 53.515 62.7239 53.095C63.8439 52.675 65.0922 52.465 66.4689 52.465C67.8455 52.465 69.0939 52.6867 70.2139 53.13C71.3339 53.55 72.2905 54.1567 73.0839 54.95C73.9005 55.72 74.5305 56.665 74.9739 57.785C75.4172 58.905 75.6389 60.1417 75.6389 61.495ZM63.3889 61.495C63.3889 62.9183 63.6572 64.015 64.1939 64.785C64.7539 65.5317 65.5239 65.905 66.5039 65.905C67.4839 65.905 68.2305 65.52 68.7439 64.75C69.2805 63.98 69.5489 62.895 69.5489 61.495C69.5489 60.095 69.2805 59.0217 68.7439 58.275C68.2072 57.505 67.4489 57.12 66.4689 57.12C65.4889 57.12 64.7305 57.505 64.1939 58.275C63.6572 59.0217 63.3889 60.095 63.3889 61.495ZM77.4258 55.755C77.6124 54.8683 77.9741 54.145 78.5108 53.585C79.0708 53.025 79.7591 52.745 80.5758 52.745C81.3458 52.745 81.9408 52.9317 82.3608 53.305C82.7808 53.6783 83.2474 54.2033 83.7608 54.88L86.0008 57.82L89.7458 52.745C91.0291 52.745 92.0441 52.9783 92.7908 53.445C93.5374 53.8883 93.9108 54.495 93.9108 55.265C93.9108 55.5683 93.8641 55.8483 93.7708 56.105C93.7008 56.3383 93.5841 56.5833 93.4208 56.84C93.2574 57.0967 93.0474 57.3883 92.7908 57.715C92.5341 58.0417 92.2308 58.4267 91.8808 58.87L89.5708 61.46L94.1558 67.515C94.0391 68.4017 93.6891 69.1017 93.1058 69.615C92.5224 70.1283 91.8224 70.385 91.0058 70.385C90.1191 70.3617 89.4074 70.105 88.8708 69.615C88.3574 69.125 87.8558 68.53 87.3658 67.83L85.4758 65.135L81.9058 70.28C81.7891 70.28 81.6608 70.28 81.5208 70.28C81.3808 70.3033 81.2641 70.315 81.1708 70.315C79.9808 70.315 79.0708 70.07 78.4408 69.58C77.8341 69.09 77.5308 68.4833 77.5308 67.76C77.5308 67.2 77.6591 66.71 77.9158 66.29C78.1958 65.8467 78.6624 65.2517 79.3158 64.505L82.1158 61.25L77.4258 55.755ZM96.5511 48.265C96.5511 47.3783 96.8428 46.6317 97.4261 46.025C98.0328 45.4183 98.8261 45.115 99.8061 45.115C100.786 45.115 101.568 45.4183 102.151 46.025C102.758 46.6317 103.061 47.3783 103.061 48.265C103.061 49.1517 102.758 49.8983 102.151 50.505C101.568 51.1117 100.786 51.415 99.8061 51.415C98.8261 51.415 98.0328 51.1117 97.4261 50.505C96.8428 49.8983 96.5511 49.1517 96.5511 48.265ZM102.781 69.965C102.524 70.0117 102.139 70.07 101.626 70.14C101.136 70.2333 100.634 70.28 100.121 70.28C99.6078 70.28 99.1411 70.245 98.7211 70.175C98.3244 70.105 97.9861 69.965 97.7061 69.755C97.4261 69.545 97.2044 69.265 97.0411 68.915C96.9011 68.5417 96.8311 68.0633 96.8311 67.48V53.235C97.0878 53.1883 97.4611 53.13 97.9511 53.06C98.4644 52.9667 98.9778 52.92 99.4911 52.92C100.004 52.92 100.459 52.955 100.856 53.025C101.276 53.095 101.626 53.235 101.906 53.445C102.186 53.655 102.396 53.9467 102.536 54.32C102.699 54.67 102.781 55.1367 102.781 55.72V69.965ZM114.724 52.465C115.681 52.465 116.614 52.605 117.524 52.885C118.457 53.1417 119.262 53.5383 119.939 54.075C120.639 53.6083 121.421 53.2233 122.284 52.92C123.171 52.6167 124.232 52.465 125.469 52.465C126.356 52.465 127.219 52.5817 128.059 52.815C128.922 53.0483 129.681 53.4217 130.334 53.935C131.011 54.425 131.547 55.09 131.944 55.93C132.341 56.7467 132.539 57.75 132.539 58.94V69.965C132.306 70.035 131.932 70.105 131.419 70.175C130.929 70.245 130.416 70.28 129.879 70.28C129.366 70.28 128.899 70.245 128.479 70.175C128.082 70.105 127.744 69.965 127.464 69.755C127.184 69.545 126.962 69.265 126.799 68.915C126.659 68.5417 126.589 68.0633 126.589 67.48V59.115C126.589 58.415 126.391 57.9133 125.994 57.61C125.597 57.2833 125.061 57.12 124.384 57.12C124.057 57.12 123.707 57.2017 123.334 57.365C122.961 57.505 122.681 57.6567 122.494 57.82C122.517 57.9133 122.529 58.0067 122.529 58.1C122.529 58.17 122.529 58.24 122.529 58.31V69.965C122.272 70.035 121.887 70.105 121.374 70.175C120.884 70.245 120.382 70.28 119.869 70.28C119.356 70.28 118.889 70.245 118.469 70.175C118.072 70.105 117.734 69.965 117.454 69.755C117.174 69.545 116.952 69.265 116.789 68.915C116.649 68.5417 116.579 68.0633 116.579 67.48V59.115C116.579 58.415 116.357 57.9133 115.914 57.61C115.494 57.2833 114.981 57.12 114.374 57.12C113.954 57.12 113.592 57.19 113.289 57.33C112.986 57.4467 112.729 57.5633 112.519 57.68V69.965C112.286 70.035 111.912 70.105 111.399 70.175C110.909 70.245 110.396 70.28 109.859 70.28C109.346 70.28 108.879 70.245 108.459 70.175C108.062 70.105 107.724 69.965 107.444 69.755C107.164 69.545 106.942 69.265 106.779 68.915C106.639 68.5417 106.569 68.0633 106.569 67.48V56.91C106.569 56.28 106.697 55.7783 106.954 55.405C107.234 55.0317 107.607 54.6817 108.074 54.355C108.867 53.795 109.847 53.34 111.014 52.99C112.204 52.64 113.441 52.465 114.724 52.465ZM143.449 66.22C143.845 66.22 144.277 66.185 144.744 66.115C145.234 66.0217 145.595 65.905 145.829 65.765V62.965L143.309 63.175C142.655 63.2217 142.119 63.3617 141.699 63.595C141.279 63.8283 141.069 64.1783 141.069 64.645C141.069 65.1117 141.244 65.4967 141.594 65.8C141.967 66.08 142.585 66.22 143.449 66.22ZM143.169 52.465C144.429 52.465 145.572 52.5933 146.599 52.85C147.649 53.1067 148.535 53.5033 149.259 54.04C150.005 54.5533 150.577 55.2183 150.974 56.035C151.37 56.8283 151.569 57.7733 151.569 58.87V66.71C151.569 67.3167 151.394 67.8183 151.044 68.215C150.717 68.5883 150.32 68.915 149.854 69.195C148.337 70.105 146.202 70.56 143.449 70.56C142.212 70.56 141.092 70.4433 140.089 70.21C139.109 69.9767 138.257 69.6267 137.534 69.16C136.834 68.6933 136.285 68.0983 135.889 67.375C135.515 66.6517 135.329 65.8117 135.329 64.855C135.329 63.245 135.807 62.0083 136.764 61.145C137.72 60.2817 139.202 59.745 141.209 59.535L145.794 59.045V58.8C145.794 58.1233 145.49 57.645 144.884 57.365C144.3 57.0617 143.449 56.91 142.329 56.91C141.442 56.91 140.579 57.0033 139.739 57.19C138.899 57.3767 138.14 57.61 137.464 57.89C137.16 57.68 136.904 57.365 136.694 56.945C136.484 56.5017 136.379 56.0467 136.379 55.58C136.379 54.9733 136.519 54.495 136.799 54.145C137.102 53.7717 137.557 53.4567 138.164 53.2C138.84 52.9433 139.634 52.7567 140.544 52.64C141.477 52.5233 142.352 52.465 143.169 52.465Z" fill="white"/>
</g>
<defs>
<clipPath id="clip0_2201:2107">
<path d="M0 8C0 3.58172 3.58172 0 8 0H142C146.418 0 150 3.58172 150 8V67C150 71.4183 146.418 75 142 75H8C3.58172 75 0 71.4183 0 67V8Z" fill="white"/>
</clipPath>
</defs>
</svg>
