<svg width="25" height="24" viewBox="0 0 25 24" fill="none" xmlns="http://www.w3.org/2000/svg">
<path d="M5.20825 3V2.25C4.79404 2.25 4.45825 2.58579 4.45825 3H5.20825ZM19.7916 21V21.75C20.2058 21.75 20.5416 21.4142 20.5416 21H19.7916ZM5.20825 21H4.45825C4.45825 21.4142 4.79404 21.75 5.20825 21.75V21ZM14.5833 3L15.1027 2.45896C14.963 2.32488 14.7769 2.25 14.5833 2.25V3ZM19.7916 8H20.5416C20.5416 7.79578 20.4583 7.60039 20.311 7.45896L19.7916 8ZM13.2499 11C13.2499 10.5858 12.9141 10.25 12.4999 10.25C12.0857 10.25 11.7499 10.5858 11.7499 11H13.2499ZM11.7499 17C11.7499 17.4142 12.0857 17.75 12.4999 17.75C12.9141 17.75 13.2499 17.4142 13.2499 17H11.7499ZM9.37492 13.25C8.96071 13.25 8.62492 13.5858 8.62492 14C8.62492 14.4142 8.96071 14.75 9.37492 14.75V13.25ZM15.6249 14.75C16.0391 14.75 16.3749 14.4142 16.3749 14C16.3749 13.5858 16.0391 13.25 15.6249 13.25V14.75ZM19.7916 20.25H5.20825V21.75H19.7916V20.25ZM5.95825 21V3H4.45825V21H5.95825ZM5.20825 3.75H14.5833V2.25H5.20825V3.75ZM19.0416 8V21H20.5416V8H19.0416ZM14.0639 3.54104L19.2722 8.54104L20.311 7.45896L15.1027 2.45896L14.0639 3.54104ZM12.7916 3V7H14.2916V3H12.7916ZM15.6249 9.75H19.7916V8.25H15.6249V9.75ZM12.7916 7C12.7916 8.54734 14.0893 9.75 15.6249 9.75V8.25C14.8594 8.25 14.2916 7.66179 14.2916 7H12.7916ZM11.7499 11V17H13.2499V11H11.7499ZM9.37492 14.75H15.6249V13.25H9.37492V14.75Z" fill="white"/>
</svg>
