<svg width="25" height="25" viewBox="0 0 25 25" fill="none" xmlns="http://www.w3.org/2000/svg">
<path d="M17.7083 17.7083C16.5577 17.7083 15.625 18.6411 15.625 19.7917C15.625 20.9423 16.5577 21.875 17.7083 21.875C18.8589 21.875 19.7916 20.9423 19.7916 19.7917C19.7916 18.6411 18.8589 17.7083 17.7083 17.7083ZM17.7083 17.7083H7.67424C7.15586 17.7083 6.71636 17.3272 6.64305 16.814L6.32438 14.5833M2.08331 3.125H4.68748L4.9851 5.20833M4.9851 5.20833H5.20831H21.875L18.75 14.5833H6.77081H6.32438M4.9851 5.20833L6.32438 14.5833M11.4583 19.7917C11.4583 20.9423 10.5256 21.875 9.37498 21.875C8.22439 21.875 7.29165 20.9423 7.29165 19.7917C7.29165 18.6411 8.22439 17.7083 9.37498 17.7083C10.5256 17.7083 11.4583 18.6411 11.4583 19.7917Z" stroke="#222222" stroke-width="1.5" stroke-linecap="round" stroke-linejoin="round"/>
</svg>
