<svg width="30" height="30" viewBox="0 0 30 30" fill="none" xmlns="http://www.w3.org/2000/svg">
<path d="M15.75 10C15.75 9.58579 15.4142 9.25 15 9.25C14.5858 9.25 14.25 9.58579 14.25 10H15.75ZM14.25 20C14.25 20.4142 14.5858 20.75 15 20.75C15.4142 20.75 15.75 20.4142 15.75 20H14.25ZM10 14.25C9.58579 14.25 9.25 14.5858 9.25 15C9.25 15.4142 9.58579 15.75 10 15.75V14.25ZM20 15.75C20.4142 15.75 20.75 15.4142 20.75 15C20.75 14.5858 20.4142 14.25 20 14.25V15.75ZM14.25 10V20H15.75V10H14.25ZM10 15.75H20V14.25H10V15.75ZM25.5 15C25.5 20.799 20.799 25.5 15 25.5V27C21.6274 27 27 21.6274 27 15H25.5ZM15 25.5C9.20101 25.5 4.5 20.799 4.5 15H3C3 21.6274 8.37258 27 15 27V25.5ZM4.5 15C4.5 9.20101 9.20101 4.5 15 4.5V3C8.37258 3 3 8.37258 3 15H4.5ZM15 4.5C20.799 4.5 25.5 9.20101 25.5 15H27C27 8.37258 21.6274 3 15 3V4.5Z" fill="#222222"/>
</svg>
