<svg width="18" height="18" viewBox="0 0 18 18" fill="none" xmlns="http://www.w3.org/2000/svg">
<path d="M9.75 5.25C9.75 4.83579 9.41421 4.5 9 4.5C8.58579 4.5 8.25 4.83579 8.25 5.25H9.75ZM8.25 10.5C8.25 10.9142 8.58579 11.25 9 11.25C9.41421 11.25 9.75 10.9142 9.75 10.5H8.25ZM9.75 12.7425C9.75 12.3283 9.41421 11.9925 9 11.9925C8.58579 11.9925 8.25 12.3283 8.25 12.7425H9.75ZM8.25 12.75C8.25 13.1642 8.58579 13.5 9 13.5C9.41421 13.5 9.75 13.1642 9.75 12.75H8.25ZM8.25 5.25V10.5H9.75V5.25H8.25ZM8.25 12.7425V12.75H9.75V12.7425H8.25ZM15 9C15 12.3137 12.3137 15 9 15V16.5C13.1421 16.5 16.5 13.1421 16.5 9H15ZM9 15C5.68629 15 3 12.3137 3 9H1.5C1.5 13.1421 4.85786 16.5 9 16.5V15ZM3 9C3 5.68629 5.68629 3 9 3V1.5C4.85786 1.5 1.5 4.85786 1.5 9H3ZM9 3C12.3137 3 15 5.68629 15 9H16.5C16.5 4.85786 13.1421 1.5 9 1.5V3Z" fill="#F44336"/>
</svg>
